<?xml version="1.0" encoding="UTF-8" standalone="no"?>
<!-- Created with Inkscape (http://www.inkscape.org/) -->

<svg
   xmlns:dc="http://purl.org/dc/elements/1.1/"
   xmlns:cc="http://creativecommons.org/ns#"
   xmlns:rdf="http://www.w3.org/1999/02/22-rdf-syntax-ns#"
   xmlns:svg="http://www.w3.org/2000/svg"
   xmlns="http://www.w3.org/2000/svg"
   xmlns:sodipodi="http://sodipodi.sourceforge.net/DTD/sodipodi-0.dtd"
   xmlns:inkscape="http://www.inkscape.org/namespaces/inkscape"
   width="297mm"
   height="210mm"
   viewBox="0 0 297 210"
   version="1.1"
   id="svg8"
   sodipodi:docname="_banner.svg"
   inkscape:version="0.92+devel unknown"
   inkscape:export-filename="/mnt/sda5/Projects/metabin.space/metabin/banner.png"
   inkscape:export-xdpi="10.04"
   inkscape:export-ydpi="10.04">
  <defs
     id="defs2" />
  <sodipodi:namedview
     id="base"
     pagecolor="#ffffff"
     bordercolor="#666666"
     borderopacity="1.0"
     inkscape:pageopacity="0.0"
     inkscape:pageshadow="2"
     inkscape:zoom="0.49968378"
     inkscape:cx="353.54186"
     inkscape:cy="299.97324"
     inkscape:document-units="mm"
     inkscape:current-layer="layer5"
     inkscape:document-rotation="0"
     showgrid="false"
     inkscape:measure-start="580.923,263.086"
     inkscape:measure-end="831.917,263.183"
     inkscape:window-width="1280"
     inkscape:window-height="906"
     inkscape:window-x="0"
     inkscape:window-y="27"
     inkscape:window-maximized="1" />
  <metadata
     id="metadata5">
    <rdf:RDF>
      <cc:Work
         rdf:about="">
        <dc:format>image/svg+xml</dc:format>
        <dc:type
           rdf:resource="http://purl.org/dc/dcmitype/StillImage" />
        <dc:title />
      </cc:Work>
    </rdf:RDF>
  </metadata>
  <g
     inkscape:groupmode="layer"
     id="layer4"
     inkscape:label="background"
     style="display:inline"
     transform="translate(0,-87)">
    <rect
       style="fill:#161920;fill-opacity:1;stroke:none;stroke-width:1.72221899;stroke-miterlimit:4;stroke-dasharray:none;stroke-opacity:1"
       id="rect4298"
       width="265.62674"
       height="131.82846"
       x="15.68663"
       y="126.08577"
       inkscape:export-xdpi="96"
       inkscape:export-ydpi="96"
       inkscape:export-filename="/mnt/sda5/Projects/metabin.space/metabin-logo/banner.png" />
  </g>
  <g
     inkscape:groupmode="layer"
     id="layer3"
     inkscape:label="Layer 3"
     style="display:inline"
     transform="translate(0,-87)" />
  <g
     inkscape:label="Layer 1"
     inkscape:groupmode="layer"
     id="layer1"
     style="display:inline"
     transform="translate(0,-87)" />
  <g
     inkscape:groupmode="layer"
     id="layer2"
     inkscape:label="Layer 2"
     style="display:inline"
     transform="translate(0,-87)" />
  <g
     inkscape:groupmode="layer"
     id="layer5"
     inkscape:label="nodes"
     style="display:inline"
     transform="translate(0,-87)">
    <text
       xml:space="preserve"
       style="font-style:normal;font-weight:normal;font-size:10.58333302px;line-height:6.61458302px;font-family:sans-serif;letter-spacing:0.26458332px;word-spacing:0px;fill:#000000;fill-opacity:1;stroke:none;stroke-width:0.26458332px;stroke-linecap:butt;stroke-linejoin:miter;stroke-opacity:1"
       x="123.82002"
       y="195.14941"
       id="text38"
       inkscape:export-filename="/mnt/sda5/Projects/metabin.space/metabin-logo/banner.png"
       inkscape:export-xdpi="96"
       inkscape:export-ydpi="96"><tspan
         sodipodi:role="line"
         id="tspan36"
         x="123.82002"
         y="195.14941"
         style="font-style:normal;font-variant:normal;font-weight:normal;font-stretch:normal;font-size:5.64444447px;font-family:Montserrat;-inkscape-font-specification:'Montserrat, Normal';font-variant-ligatures:normal;font-variant-caps:normal;font-variant-numeric:normal;font-feature-settings:normal;text-align:start;letter-spacing:0.26458332px;writing-mode:lr-tb;text-anchor:start;fill:#ffffff;fill-opacity:1;stroke-width:0.26458332px">METABIN.SPACE</tspan></text>
    <text
       xml:space="preserve"
       style="font-style:normal;font-weight:normal;font-size:10.58333302px;line-height:6.61458302px;font-family:sans-serif;letter-spacing:0px;word-spacing:0px;fill:#000000;fill-opacity:1;stroke:none;stroke-width:0.26458332px;stroke-linecap:butt;stroke-linejoin:miter;stroke-opacity:1"
       x="114.15955"
       y="205.67099"
       id="text847"
       inkscape:export-filename="/mnt/sda5/Projects/metabin.space/metabin-logo/banner.png"
       inkscape:export-xdpi="96"
       inkscape:export-ydpi="96"><tspan
         sodipodi:role="line"
         id="tspan845"
         x="114.15955"
         y="205.67099"
         style="font-style:normal;font-variant:normal;font-weight:normal;font-stretch:normal;font-size:4.58611107px;font-family:'URW Gothic L';-inkscape-font-specification:'URW Gothic L';fill:#ffffff;fill-opacity:1;stroke-width:0.26458332px">Advanced file sharing platform</tspan></text>
    <g
       id="g4620"
       transform="matrix(0.46978348,0,0,0.46978348,104.84431,79.76429)"
       inkscape:export-xdpi="96"
       inkscape:export-ydpi="96">
      <path
         id="path4609"
         d="m 131.59855,218.86724 c -1.84576,-0.26063 -3.47649,-1.49026 -4.18526,-3.15585 -0.30913,-0.72644 -0.41271,-1.25405 -0.41271,-2.10222 0,-0.65126 0.0186,-0.8325 0.12766,-1.24717 0.26097,-0.99184 0.71737,-1.80189 1.39843,-2.48206 2.07918,-2.07642 5.40872,-2.07982 7.48089,-0.008 2.09211,2.0921 2.06903,5.45718 -0.0516,7.52147 -0.72446,0.70522 -1.63777,1.19605 -2.60362,1.39922 -0.45917,0.0966 -1.33347,0.1336 -1.75381,0.0743 z"
         style="fill:#53f592;fill-opacity:1;stroke-width:0.0508"
         inkscape:connector-curvature="0" />
      <path
         id="path4607"
         d="m 53.022689,218.81164 c -1.493345,-0.1349 -3.024801,-1.04813 -3.852585,-2.29734 -0.299428,-0.45187 -0.628167,-1.18621 -0.756096,-1.68898 -0.161551,-0.63489 -0.161543,-1.98126 1.6e-5,-2.57126 0.410532,-1.4992 1.403445,-2.7407 2.731557,-3.41541 3.028842,-1.53873 6.652908,0.0947 7.541097,3.39892 0.141086,0.52487 0.191638,1.54523 0.103738,2.09387 -0.330607,2.06349 -1.790329,3.72703 -3.77505,4.30219 -0.395382,0.11457 -0.652572,0.15443 -1.306877,0.20251 -0.12573,0.009 -0.43434,-0.002 -0.6858,-0.0245 z"
         style="fill:#ff255c;fill-opacity:1;stroke-width:0.0508"
         inkscape:connector-curvature="0" />
      <path
         id="path4605"
         d="M 113.595,199.57456 C 106.89969,193.7427 95.317989,183.65622 87.857887,177.16017 l -13.563817,-11.811 0.452226,-0.45156 c 0.48893,-0.48821 0.874405,-0.97596 1.198382,-1.51632 l 0.205222,-0.34229 25.49499,22.20633 c 14.02225,12.21349 25.60479,22.3023 25.73898,22.41959 l 0.24398,0.21326 -0.52378,0.52869 c -0.47699,0.48147 -0.97155,1.11819 -1.23418,1.58895 l -0.1016,0.18211 z"
         style="fill:#53f592;fill-opacity:1;stroke-width:0.0508"
         inkscape:connector-curvature="0" />
      <path
         id="path4603"
         d="m 59.889243,209.82215 c -0.257594,-0.45825 -0.757656,-1.08636 -1.244081,-1.56264 -0.471767,-0.46192 -0.480684,-0.47498 -0.385703,-0.56462 0.05348,-0.0505 5.960819,-5.19716 13.127428,-11.4371 7.16661,-6.23993 14.055095,-12.23806 15.307741,-13.32917 1.252647,-1.09112 2.295159,-1.99035 2.316688,-1.99831 0.03777,-0.0139 2.198853,1.84582 2.226676,1.91622 0.0098,0.0248 -29.994978,26.20134 -31.078687,27.11347 l -0.130723,0.11003 z"
         style="fill:#ff255c;fill-opacity:1;stroke-width:0.0508"
         inkscape:connector-curvature="0" />
      <path
         id="path4601"
         d="m 130.72129,206.37465 c 0,-0.0782 -0.18683,-1.89947 -0.30792,-3.00168 -1.3069,-11.89597 -3.70007,-21.24122 -7.6694,-29.94876 -0.87294,-1.91497 -2.42822,-4.92357 -3.42086,-6.61747 -0.18514,-0.31593 -0.33662,-0.59443 -0.33662,-0.61887 0,-0.0245 0.0446,-0.0586 0.0991,-0.0759 0.15681,-0.0498 0.86208,-0.52081 1.19628,-0.79898 0.16764,-0.13953 0.45851,-0.41652 0.64638,-0.61553 0.21533,-0.22809 0.35876,-0.3435 0.38803,-0.31225 0.20212,0.21575 1.88724,3.27445 2.79803,5.07877 4.45213,8.81995 7.23772,18.32539 8.81315,30.0736 0.32523,2.42528 0.787,6.75194 0.72702,6.81192 -0.0173,0.0173 -0.21937,0.006 -0.44902,-0.0247 -0.70167,-0.0944 -1.68535,-0.063 -2.34449,0.075 -0.0836,0.0175 -0.1397,0.007 -0.1397,-0.0251 z"
         style="fill:#53f592;fill-opacity:1;stroke-width:0.0508"
         inkscape:connector-curvature="0" />
      <path
         id="path4599"
         d="m 52.009634,206.20507 c 0.01208,-0.0908 0.05781,-0.54229 0.101626,-1.0033 1.520661,-15.99891 5.074318,-28.26174 11.412755,-39.3827 0.362283,-0.63563 0.670531,-1.1557 0.684994,-1.1557 0.01446,0 0.20785,0.1708 0.429747,0.37954 0.431487,0.40591 1.136678,0.90254 1.639146,1.15436 0.169612,0.085 0.313843,0.1592 0.320513,0.16489 0.0067,0.006 -0.189611,0.36302 -0.43618,0.79408 -4.682507,8.18604 -7.773834,16.97208 -9.632663,27.37753 -0.567062,3.17434 -1.077876,6.95317 -1.476412,10.922 -0.04629,0.46101 -0.09169,0.84596 -0.100878,0.85543 -0.0092,0.009 -0.177167,-0.008 -0.373282,-0.0381 -0.500018,-0.0776 -1.682105,-0.0658 -2.165911,0.0216 -0.22352,0.0404 -0.410678,0.0739 -0.415907,0.0744 -0.0052,5.6e-4 3.56e-4,-0.0733 0.01245,-0.1641 z"
         style="fill:#ff255c;fill-opacity:1;stroke-width:0.0508"
         inkscape:connector-curvature="0" />
      <path
         id="path4597"
         d="m 95.500965,177.20025 c -1.058535,-0.92718 -1.104001,-0.9745 -1.016,-1.05753 0.383794,-0.36215 14.704255,-12.79941 14.734485,-12.79685 0.0214,0.002 0.16457,0.19924 0.31824,0.43873 0.26819,0.41795 1.09814,1.32499 1.4732,1.61001 0.15612,0.11865 0.16799,0.1427 0.0974,0.19725 -0.0443,0.0342 -3.30819,2.87389 -7.25321,6.31051 -3.945019,3.43662 -7.189231,6.25293 -7.209353,6.25845 -0.02013,0.006 -0.535244,-0.42673 -1.144712,-0.96057 z"
         style="fill:#ff255c;fill-opacity:1;stroke-width:0.0508"
         inkscape:connector-curvature="0" />
      <path
         id="path4595"
         d="m 68.999288,164.91417 c -0.789783,-0.0961 -1.64002,-0.41248 -2.3368,-0.86955 -0.413256,-0.27108 -1.138041,-0.98577 -1.407458,-1.38785 -1.106667,-1.65157 -1.233694,-3.67301 -0.340934,-5.42542 0.254763,-0.50008 0.433787,-0.75018 0.855162,-1.19468 0.484412,-0.51099 0.919582,-0.83296 1.529422,-1.13158 0.7813,-0.38257 1.359902,-0.51628 2.259408,-0.52211 0.431627,-0.003 0.862797,0.0225 1.041399,0.0611 1.63638,0.3535 2.921254,1.30201 3.68712,2.72188 0.707715,1.31205 0.806079,3.00557 0.256987,4.42449 -0.531307,1.37297 -1.793067,2.58682 -3.182107,3.06129 -0.707644,0.24172 -1.661556,0.3477 -2.362199,0.26246 z"
         style="fill:#ff255c;fill-opacity:1;stroke-width:0.0508"
         inkscape:connector-curvature="0" />
      <path
         id="path4564"
         d="m 114.99932,164.91217 c -2.12757,-0.22393 -3.96733,-1.82195 -4.53049,-3.9352 -0.11873,-0.44554 -0.13442,-0.59919 -0.13442,-1.31718 0,-0.71365 0.016,-0.87294 0.13155,-1.30585 0.81266,-3.04612 3.97823,-4.72792 6.92004,-3.67648 1.29907,0.4643 2.33487,1.39375 2.94827,2.64553 0.44604,0.91025 0.61838,1.83733 0.52581,2.82837 -0.23505,2.51614 -2.18802,4.47777 -4.74379,4.76485 -0.50668,0.0569 -0.53903,0.0568 -1.11697,-0.004 z"
         style="fill:#53f592;fill-opacity:1;stroke-width:0.0508"
         inkscape:connector-curvature="0" />
    </g>
    <path
       style="fill:none;stroke:#ffffff;stroke-width:0.25115621px;stroke-linecap:butt;stroke-linejoin:miter;stroke-opacity:0.14778341"
       d="M 26.200653,227.22039 H 270.79935"
       id="path190"
       inkscape:connector-curvature="0"
       inkscape:export-xdpi="96"
       inkscape:export-ydpi="96" />
    <g
       id="g1435"
       transform="matrix(0.023759,0,0,0.023759,211.84259,273.51327)">
      <g
         id="g1362">
        <g
           id="g1330">
          <g
             id="g1328">
            <path
               id="path1326"
               d="M 243.196,0 C 108.891,0 0,108.891 0,243.196 0,377.501 108.891,486.392 243.196,486.392 377.501,486.392 486.392,377.501 486.392,243.196 486.392,108.861 377.501,0 243.196,0 Z m 62.866,243.165 -39.854,0.03 -0.03,145.917 H 211.489 V 243.196 H 175.01 v -50.281 l 36.479,-0.03 -0.061,-29.609 c 0,-41.039 11.126,-65.997 59.431,-65.997 h 40.249 v 50.311 h -25.171 c -18.817,0 -19.729,7.022 -19.729,20.124 l -0.061,25.171 h 45.234 z"
               style="fill:#010002"
               inkscape:connector-curvature="0" />
          </g>
        </g>
        <g
           id="g1332" />
        <g
           id="g1334" />
        <g
           id="g1336" />
        <g
           id="g1338" />
        <g
           id="g1340" />
        <g
           id="g1342" />
        <g
           id="g1344" />
        <g
           id="g1346" />
        <g
           id="g1348" />
        <g
           id="g1350" />
        <g
           id="g1352" />
        <g
           id="g1354" />
        <g
           id="g1356" />
        <g
           id="g1358" />
        <g
           id="g1360" />
      </g>
      <g
         id="g1364" />
      <g
         id="g1366" />
      <g
         id="g1368" />
      <g
         id="g1370" />
      <g
         id="g1372" />
      <g
         id="g1374" />
      <g
         id="g1376" />
      <g
         id="g1378" />
      <g
         id="g1380" />
      <g
         id="g1382" />
      <g
         id="g1384" />
      <g
         id="g1386" />
      <g
         id="g1388" />
      <g
         id="g1390" />
      <g
         id="g1392" />
    </g>
    <g
       id="g1707"
       transform="translate(3.3312469,40.822148)"
       inkscape:export-xdpi="96"
       inkscape:export-ydpi="96">
      <g
         transform="translate(-3.2453623,-41.027185)"
         id="g1627">
        <circle
           style="fill:#161920;fill-opacity:1;stroke:none;stroke-width:2.75862312;stroke-miterlimit:4;stroke-dasharray:none;stroke-opacity:1"
           id="path1105"
           cx="148.5"
           cy="227.2204"
           r="6.8667498" />
        <path
           d="m 147.04741,230.40317 c 2.95586,0 4.57232,-2.44877 4.57232,-4.57231 0,-0.0696 -0.001,-0.13884 -0.005,-0.20764 0.31375,-0.22694 0.58649,-0.50989 0.80157,-0.83212 -0.28793,0.12795 -0.5978,0.21407 -0.92285,0.25298 0.33181,-0.19898 0.58649,-0.51366 0.70667,-0.88882 -0.31049,0.18413 -0.65432,0.31784 -1.02044,0.39006 -0.29324,-0.31235 -0.71072,-0.50772 -1.173,-0.50772 -0.88744,0 -1.60708,0.7197 -1.60708,1.60678 0,0.12622 0.0148,0.24875 0.0416,0.3664 -1.33561,-0.067 -2.51993,-0.70664 -3.31253,-1.67896 -0.1381,0.23758 -0.21754,0.51333 -0.21754,0.80769 0,0.55752 0.28372,1.04969 0.71513,1.33764 -0.26367,-0.007 -0.51133,-0.0804 -0.72781,-0.20096 -1.9e-4,0.007 -1.9e-4,0.0124 -1.9e-4,0.0198 0,0.77825 0.55392,1.42802 1.28923,1.57527 -0.13488,0.0369 -0.27711,0.0564 -0.42375,0.0564 -0.10345,0 -0.20417,-0.01 -0.302,-0.029 0.20467,0.63852 0.79782,1.10315 1.50117,1.11614 -0.54999,0.43112 -1.24288,0.68786 -1.9959,0.68786 -0.12944,0 -0.25751,-0.007 -0.38331,-0.0223 0.71121,0.45584 1.5557,0.72183 2.46334,0.72183"
           fill="#1da1f2"
           id="path1437"
           inkscape:connector-curvature="0"
           style="fill:#ffffff;fill-opacity:1;stroke-width:0.02628362" />
        <text
           xml:space="preserve"
           style="font-style:normal;font-weight:normal;font-size:10.58333302px;line-height:6.61458302px;font-family:sans-serif;letter-spacing:0px;word-spacing:0px;fill:#000000;fill-opacity:1;stroke:none;stroke-width:0.26458332px;stroke-linecap:butt;stroke-linejoin:miter;stroke-opacity:1"
           x="131.36412"
           y="244.87946"
           id="text1453"><tspan
             sodipodi:role="line"
             id="tspan1451"
             x="131.36412"
             y="244.87946"
             style="font-style:normal;font-variant:normal;font-weight:normal;font-stretch:normal;font-size:4.23333311px;font-family:Montserrat;-inkscape-font-specification:Montserrat;fill:#ffffff;fill-opacity:1;stroke-width:0.26458332px">@MetabinSpace</tspan></text>
      </g>
      <g
         transform="translate(-86.755437,-40.83775)"
         id="g1621">
        <circle
           r="6.8667498"
           cy="227.2204"
           cx="148.5"
           id="circle1513"
           style="fill:#161920;fill-opacity:1;stroke:none;stroke-width:2.75862312;stroke-miterlimit:4;stroke-dasharray:none;stroke-opacity:1" />
        <g
           id="g1511"
           transform="matrix(0.02752144,0,0,0.02752144,144.37179,223.09216)"
           style="fill:#ffffff;fill-opacity:1;stroke:none;stroke-opacity:1">
          <g
             id="XMLID_496_"
             style="fill:#ffffff;fill-opacity:1;stroke:none;stroke-opacity:1">
            <path
               d="m 5.299,144.645 69.126,25.8 26.756,86.047 c 1.712,5.511 8.451,7.548 12.924,3.891 l 38.532,-31.412 c 4.039,-3.291 9.792,-3.455 14.013,-0.391 l 69.498,50.457 c 4.785,3.478 11.564,0.856 12.764,-4.926 L 299.823,29.22 c 1.31,-6.316 -4.896,-11.585 -10.91,-9.259 L 5.218,129.402 c -7.001,2.7 -6.94,12.612 0.081,15.243 z m 91.57,12.066 135.098,-83.207 c 2.428,-1.491 4.926,1.792 2.841,3.726 L 123.313,180.87 c -3.919,3.648 -6.447,8.53 -7.163,13.829 l -3.798,28.146 c -0.503,3.758 -5.782,4.131 -6.819,0.494 L 90.926,172.014 c -1.673,-5.854 0.765,-12.107 5.943,-15.303 z"
               id="XMLID_497_"
               inkscape:connector-curvature="0"
               style="fill:#ffffff;fill-opacity:1;stroke:none;stroke-opacity:1" />
          </g>
          <g
             id="g1457"
             style="fill:#ffffff;fill-opacity:1;stroke:none;stroke-opacity:1" />
          <g
             id="g1459"
             style="fill:#ffffff;fill-opacity:1;stroke:none;stroke-opacity:1" />
          <g
             id="g1461"
             style="fill:#ffffff;fill-opacity:1;stroke:none;stroke-opacity:1" />
          <g
             id="g1463"
             style="fill:#ffffff;fill-opacity:1;stroke:none;stroke-opacity:1" />
          <g
             id="g1465"
             style="fill:#ffffff;fill-opacity:1;stroke:none;stroke-opacity:1" />
          <g
             id="g1467"
             style="fill:#ffffff;fill-opacity:1;stroke:none;stroke-opacity:1" />
          <g
             id="g1469"
             style="fill:#ffffff;fill-opacity:1;stroke:none;stroke-opacity:1" />
          <g
             id="g1471"
             style="fill:#ffffff;fill-opacity:1;stroke:none;stroke-opacity:1" />
          <g
             id="g1473"
             style="fill:#ffffff;fill-opacity:1;stroke:none;stroke-opacity:1" />
          <g
             id="g1475"
             style="fill:#ffffff;fill-opacity:1;stroke:none;stroke-opacity:1" />
          <g
             id="g1477"
             style="fill:#ffffff;fill-opacity:1;stroke:none;stroke-opacity:1" />
          <g
             id="g1479"
             style="fill:#ffffff;fill-opacity:1;stroke:none;stroke-opacity:1" />
          <g
             id="g1481"
             style="fill:#ffffff;fill-opacity:1;stroke:none;stroke-opacity:1" />
          <g
             id="g1483"
             style="fill:#ffffff;fill-opacity:1;stroke:none;stroke-opacity:1" />
          <g
             id="g1485"
             style="fill:#ffffff;fill-opacity:1;stroke:none;stroke-opacity:1" />
        </g>
        <text
           id="text1519"
           y="244.65298"
           x="137.57161"
           style="font-style:normal;font-weight:normal;font-size:10.58333302px;line-height:6.61458302px;font-family:sans-serif;letter-spacing:0px;word-spacing:0px;fill:#000000;fill-opacity:1;stroke:none;stroke-width:0.26458332px;stroke-linecap:butt;stroke-linejoin:miter;stroke-opacity:1"
           xml:space="preserve"><tspan
             style="font-style:normal;font-variant:normal;font-weight:normal;font-stretch:normal;font-size:4.23333311px;font-family:Montserrat;-inkscape-font-specification:Montserrat;fill:#ffffff;fill-opacity:1;stroke-width:0.26458332px"
             y="244.65298"
             x="137.57161"
             id="tspan1517"
             sodipodi:role="line">@metabin</tspan></text>
      </g>
      <g
         transform="translate(80.861743,-41.021557)"
         id="g1653">
        <circle
           r="6.8667498"
           cy="227.2204"
           cx="148.5"
           id="circle1592"
           style="fill:#161920;fill-opacity:1;stroke:none;stroke-width:2.75862312;stroke-miterlimit:4;stroke-dasharray:none;stroke-opacity:1" />
        <g
           id="g1588"
           transform="matrix(0.03168019,0,0,0.03168019,144.85409,223.57448)"
           style="fill:#ffffff;fill-opacity:1">
          <g
             id="g1529"
             style="fill:#ffffff;fill-opacity:1">
            <path
               id="path1521"
               d="m 230,49.585 c 0,-0.263 0.181,-0.519 0.169,-0.779 l -70.24,67.68 70.156,65.518 c 0.041,-0.468 -0.085,-0.94 -0.085,-1.418 z"
               inkscape:connector-curvature="0"
               style="fill:#ffffff;fill-opacity:1" />
            <path
               id="path1523"
               d="m 149.207,126.901 -28.674,27.588 c -1.451,1.396 -3.325,2.096 -5.2,2.096 -1.836,0 -3.672,-0.67 -5.113,-2.013 L 81.624,127.925 11.01,195.989 c 1.717,0.617 3.56,1.096 5.49,1.096 h 197.667 c 2.866,0 5.554,-0.873 7.891,-2.175 z"
               inkscape:connector-curvature="0"
               style="fill:#ffffff;fill-opacity:1" />
            <path
               id="path1525"
               d="M 115.251,138.757 222.447,35.496 c -2.427,-1.443 -5.252,-2.411 -8.28,-2.411 H 16.5 c -3.943,0 -7.556,1.531 -10.37,3.866 z"
               inkscape:connector-curvature="0"
               style="fill:#ffffff;fill-opacity:1" />
            <path
               id="path1527"
               d="m 0,52.1 v 128.484 c 0,1.475 0.339,2.897 0.707,4.256 l 69.738,-67.156 z"
               inkscape:connector-curvature="0"
               style="fill:#ffffff;fill-opacity:1" />
          </g>
          <g
             id="g1531"
             style="fill:#ffffff;fill-opacity:1" />
          <g
             id="g1533"
             style="fill:#ffffff;fill-opacity:1" />
          <g
             id="g1535"
             style="fill:#ffffff;fill-opacity:1" />
          <g
             id="g1537"
             style="fill:#ffffff;fill-opacity:1" />
          <g
             id="g1539"
             style="fill:#ffffff;fill-opacity:1" />
          <g
             id="g1541"
             style="fill:#ffffff;fill-opacity:1" />
          <g
             id="g1543"
             style="fill:#ffffff;fill-opacity:1" />
          <g
             id="g1545"
             style="fill:#ffffff;fill-opacity:1" />
          <g
             id="g1547"
             style="fill:#ffffff;fill-opacity:1" />
          <g
             id="g1549"
             style="fill:#ffffff;fill-opacity:1" />
          <g
             id="g1551"
             style="fill:#ffffff;fill-opacity:1" />
          <g
             id="g1553"
             style="fill:#ffffff;fill-opacity:1" />
          <g
             id="g1555"
             style="fill:#ffffff;fill-opacity:1" />
          <g
             id="g1557"
             style="fill:#ffffff;fill-opacity:1" />
          <g
             id="g1559"
             style="fill:#ffffff;fill-opacity:1" />
        </g>
        <text
           id="text1598"
           y="244.8555"
           x="119.92203"
           style="font-style:normal;font-weight:normal;font-size:10.58333302px;line-height:6.61458302px;font-family:sans-serif;letter-spacing:0px;word-spacing:0px;fill:#000000;fill-opacity:1;stroke:none;stroke-width:0.26458332px;stroke-linecap:butt;stroke-linejoin:miter;stroke-opacity:1"
           xml:space="preserve"><tspan
             style="font-style:normal;font-variant:normal;font-weight:normal;font-stretch:normal;font-size:4.23333311px;font-family:Montserrat;-inkscape-font-specification:Montserrat;fill:#ffffff;fill-opacity:1;stroke-width:0.26458332px"
             y="244.8555"
             x="119.92203"
             id="tspan1596"
             sodipodi:role="line">metabin.space@gmail.com</tspan></text>
      </g>
    </g>
  </g>
  <g
     inkscape:groupmode="layer"
     id="layer6"
     inkscape:label="text"
     style="display:none"
     transform="translate(0,-87)">
    <flowRoot
       xml:space="preserve"
       id="flowRoot4300"
       style="font-style:normal;font-weight:normal;font-size:40px;line-height:25px;font-family:sans-serif;letter-spacing:0px;word-spacing:0px;fill:#000000;fill-opacity:1;stroke:none;stroke-width:1px;stroke-linecap:butt;stroke-linejoin:miter;stroke-opacity:1"
       transform="matrix(0.26458333,0,0,0.26458333,0.00928892,-12.602874)"><flowRegion
         id="flowRegion4302"><rect
           id="rect4304"
           width="298.46231"
           height="62.69022"
           x="202.72598"
           y="709.2262" /></flowRegion><flowPara
         id="flowPara4306"
         style="font-style:normal;font-variant:normal;font-weight:normal;font-stretch:normal;font-size:18.66666603px;font-family:Cantarell;-inkscape-font-specification:Cantarell;text-align:center;text-anchor:middle;fill:#eeeeee;fill-opacity:1">METABIN.SPACE</flowPara></flowRoot>  </g>
</svg>
