<?xml version="1.0" standalone="yes"?>

<svg version="1.1" viewBox="0.0 0.0 327.78740157480314 280.59055118110234" fill="none" stroke="none" stroke-linecap="square" stroke-miterlimit="10" xmlns="http://www.w3.org/2000/svg" xmlns:xlink="http://www.w3.org/1999/xlink"><clipPath id="p.0"><path d="m0 0l327.7874 0l0 280.59055l-327.7874 0l0 -280.59055z" clip-rule="nonzero"></path></clipPath><g clip-path="url(#p.0)"><path fill="#000000" fill-opacity="0.0" d="m0 0l327.7874 0l0 280.59055l-327.7874 0z" fill-rule="evenodd"></path><path fill="#000000" fill-opacity="0.0" d="m19.65873 5.255203l116.56693 0l0 36.787403l-116.56693 0z" fill-rule="evenodd"></path><path fill="#3d85c6" d="m47.4991 29.508904l0 -0.953125q-1.421875 1.21875 -3.046875 1.21875q-1.1875 0 -1.859375 -0.59375q-0.65625 -0.609375 -0.65625 -1.484375q0 -0.953125 0.875 -1.65625q0.875 -0.71875 2.5625 -0.71875q0.453125 0 0.984375 0.0625q0.53125 0.0625 1.140625 0.1875l0 -1.0625q0 -0.546875 -0.5 -0.9375q-0.5 -0.40625 -1.5 -0.40625q-0.765625 0 -2.140625 0.453125q-0.25 0.078125 -0.328125 0.078125q-0.125 0 -0.21875 -0.09375q-0.078125 -0.09375 -0.078125 -0.234375q0 -0.140625 0.078125 -0.21875q0.109375 -0.109375 0.875 -0.3125q1.21875 -0.328125 1.84375 -0.328125q1.25 0 1.9375 0.609375q0.703125 0.609375 0.703125 1.390625l0 4.34375l0.875 0q0.234375 0 0.328125 0.09375q0.109375 0.078125 0.109375 0.234375q0 0.140625 -0.109375 0.234375q-0.09375 0.09375 -0.328125 0.09375l-1.546875 0zm0 -3.265625q-0.453125 -0.140625 -0.96875 -0.203125q-0.515625 -0.0625 -1.09375 -0.0625q-1.421875 0 -2.234375 0.625q-0.609375 0.453125 -0.609375 1.09375q0 0.59375 0.46875 1.0q0.46875 0.40625 1.359375 0.40625q0.84375 0 1.578125 -0.328125q0.734375 -0.34375 1.5 -1.09375l0 -1.4375zm7.5859375 1.375l0.28125 0q0.4375 0 0.75 0.3125q0.3125 0.3125 0.3125 0.75q0 0.453125 -0.328125 0.765625q-0.3125 0.296875 -0.734375 0.296875l-0.28125 0q-0.4375 0 -0.75 -0.3125q-0.3125 -0.3125 -0.3125 -0.75q0 -0.453125 0.3125 -0.75q0.3125 -0.3125 0.75 -0.3125zm8.3828125 -4.875l3.5625 0q0.234375 0 0.328125 0.09375q0.109375 0.09375 0.109375 0.234375q0 0.140625 -0.109375 0.234375q-0.09375 0.09375 -0.328125 0.09375l-3.5625 0l0 4.375q0 0.5625 0.453125 0.953125q0.46875 0.375 1.34375 0.375q0.671875 0 1.4375 -0.1875q0.78125 -0.203125 1.203125 -0.453125q0.15625 -0.109375 0.265625 -0.109375q0.125 0 0.21875 0.109375q0.09375 0.09375 0.09375 0.21875q0 0.125 -0.109375 0.21875q-0.25 0.265625 -1.21875 0.578125q-0.953125 0.296875 -1.84375 0.296875q-1.140625 0 -1.828125 -0.546875q-0.671875 -0.546875 -0.671875 -1.453125l0 -4.375l-1.21875 0q-0.234375 0 -0.34375 -0.09375q-0.09375 -0.09375 -0.09375 -0.234375q0 -0.140625 0.09375 -0.234375q0.109375 -0.09375 0.34375 -0.09375l1.21875 0l0 -1.9375q0 -0.234375 0.09375 -0.328125q0.09375 -0.109375 0.234375 -0.109375q0.140625 0 0.234375 0.109375q0.09375 0.09375 0.09375 0.328125l0 1.9375zm14.6171875 3.390625q0 1.5 -1.078125 2.578125q-1.0625 1.0625 -2.578125 1.0625q-1.53125 0 -2.609375 -1.0625q-1.0625 -1.078125 -1.0625 -2.578125q0 -1.5 1.0625 -2.5625q1.078125 -1.0625 2.609375 -1.0625q1.515625 0 2.578125 1.0625q1.078125 1.0625 1.078125 2.5625zm-0.65625 0q0 -1.234375 -0.890625 -2.09375q-0.875 -0.875 -2.125 -0.875q-1.25 0 -2.125 0.875q-0.875 0.875 -0.875 2.09375q0 1.21875 0.875 2.09375q0.875 0.875 2.125 0.875q1.25 0 2.125 -0.859375q0.890625 -0.875 0.890625 -2.109375zm5.8046875 -3.390625l0 1.65625q1.28125 -1.15625 1.921875 -1.484375q0.640625 -0.34375 1.171875 -0.34375q0.59375 0 1.09375 0.40625q0.5 0.390625 0.5 0.59375q0 0.140625 -0.09375 0.25q-0.09375 0.09375 -0.25 0.09375q-0.078125 0 -0.140625 -0.03125q-0.046875 -0.03125 -0.1875 -0.171875q-0.28125 -0.28125 -0.484375 -0.375q-0.203125 -0.109375 -0.390625 -0.109375q-0.4375 0 -1.046875 0.34375q-0.59375 0.34375 -2.09375 1.6875l0 3.59375l2.90625 0q0.25 0 0.34375 0.09375q0.109375 0.078125 0.109375 0.234375q0 0.140625 -0.109375 0.234375q-0.09375 0.09375 -0.34375 0.09375l-5.140625 0q-0.234375 0 -0.34375 -0.09375q-0.09375 -0.09375 -0.09375 -0.234375q0 -0.125 0.09375 -0.21875q0.09375 -0.09375 0.34375 -0.09375l1.578125 0l0 -5.46875l-1.203125 0q-0.234375 0 -0.34375 -0.09375q-0.09375 -0.09375 -0.09375 -0.234375q0 -0.140625 0.09375 -0.234375q0.09375 -0.09375 0.34375 -0.09375l1.859375 0zm9.6015625 0l0 1.65625q1.28125 -1.15625 1.921875 -1.484375q0.640625 -0.34375 1.171875 -0.34375q0.59375 0 1.09375 0.40625q0.5 0.390625 0.5 0.59375q0 0.140625 -0.09375 0.25q-0.09375 0.09375 -0.25 0.09375q-0.078125 0 -0.140625 -0.03125q-0.046875 -0.03125 -0.1875 -0.171875q-0.28125 -0.28125 -0.484375 -0.375q-0.203125 -0.109375 -0.390625 -0.109375q-0.4375 0 -1.046875 0.34375q-0.59375 0.34375 -2.09375 1.6875l0 3.59375l2.90625 0q0.25 0 0.34375 0.09375q0.109375 0.078125 0.109375 0.234375q0 0.140625 -0.109375 0.234375q-0.09375 0.09375 -0.34375 0.09375l-5.140625 0q-0.234375 0 -0.34375 -0.09375q-0.09375 -0.09375 -0.09375 -0.234375q0 -0.125 0.09375 -0.21875q0.09375 -0.09375 0.34375 -0.09375l1.578125 0l0 -5.46875l-1.203125 0q-0.234375 0 -0.34375 -0.09375q-0.09375 -0.09375 -0.09375 -0.234375q0 -0.140625 0.09375 -0.234375q0.09375 -0.09375 0.34375 -0.09375l1.859375 0zm13.9453125 3.53125l-6.6875 0q0.171875 1.28125 1.0625 2.0625q0.890625 0.765625 2.21875 0.765625q0.734375 0 1.53125 -0.234375q0.8125 -0.25 1.3125 -0.640625q0.15625 -0.125 0.265625 -0.125q0.125 0 0.21875 0.109375q0.09375 0.09375 0.09375 0.21875q0 0.140625 -0.125 0.265625q-0.375 0.390625 -1.34375 0.734375q-0.953125 0.34375 -1.953125 0.34375q-1.6875 0 -2.828125 -1.109375q-1.125 -1.109375 -1.125 -2.6875q0 -1.421875 1.0625 -2.4375q1.0625 -1.03125 2.625 -1.03125q1.609375 0 2.640625 1.046875q1.046875 1.046875 1.03125 2.71875zm-0.671875 -0.65625q-0.1875 -1.09375 -1.03125 -1.765625q-0.828125 -0.6875 -1.96875 -0.6875q-1.15625 0 -1.984375 0.671875q-0.828125 0.671875 -1.03125 1.78125l6.015625 0zm4.6015625 -2.875l0 0.984375q0.6875 -0.6875 1.234375 -0.953125q0.5625 -0.265625 1.25 -0.265625q0.75 0 1.375 0.3125q0.4375 0.234375 0.78125 0.78125q0.359375 0.546875 0.359375 1.109375l0 4.140625l0.5625 0q0.234375 0 0.328125 0.09375q0.109375 0.078125 0.109375 0.234375q0 0.140625 -0.109375 0.234375q-0.09375 0.09375 -0.328125 0.09375l-1.765625 0q-0.234375 0 -0.34375 -0.09375q-0.09375 -0.09375 -0.09375 -0.234375q0 -0.15625 0.09375 -0.234375q0.109375 -0.09375 0.34375 -0.09375l0.546875 0l0 -4.03125q0 -0.6875 -0.515625 -1.171875q-0.5 -0.484375 -1.34375 -0.484375q-0.65625 0 -1.140625 0.265625q-0.46875 0.265625 -1.34375 1.296875l0 4.125l0.734375 0q0.234375 0 0.328125 0.09375q0.109375 0.078125 0.109375 0.234375q0 0.140625 -0.109375 0.234375q-0.09375 0.09375 -0.328125 0.09375l-2.140625 0q-0.234375 0 -0.34375 -0.09375q-0.09375 -0.09375 -0.09375 -0.234375q0 -0.15625 0.09375 -0.234375q0.109375 -0.09375 0.34375 -0.09375l0.75 0l0 -5.453125l-0.5625 0q-0.234375 0 -0.34375 -0.09375q-0.09375 -0.09375 -0.09375 -0.234375q0 -0.140625 0.09375 -0.234375q0.109375 -0.09375 0.34375 -0.09375l1.21875 0zm10.3671875 0l3.5625 0q0.234375 0 0.328125 0.09375q0.109375 0.09375 0.109375 0.234375q0 0.140625 -0.109375 0.234375q-0.09375 0.09375 -0.328125 0.09375l-3.5625 0l0 4.375q0 0.5625 0.453125 0.953125q0.46875 0.375 1.34375 0.375q0.671875 0 1.4375 -0.1875q0.78125 -0.203125 1.203125 -0.453125q0.15625 -0.109375 0.265625 -0.109375q0.125 0 0.21875 0.109375q0.09375 0.09375 0.09375 0.21875q0 0.125 -0.109375 0.21875q-0.25 0.265625 -1.21875 0.578125q-0.953125 0.296875 -1.84375 0.296875q-1.140625 0 -1.828125 -0.546875q-0.671875 -0.546875 -0.671875 -1.453125l0 -4.375l-1.21875 0q-0.234375 0 -0.34375 -0.09375q-0.09375 -0.09375 -0.09375 -0.234375q0 -0.140625 0.09375 -0.234375q0.109375 -0.09375 0.34375 -0.09375l1.21875 0l0 -1.9375q0 -0.234375 0.09375 -0.328125q0.09375 -0.109375 0.234375 -0.109375q0.140625 0 0.234375 0.109375q0.09375 0.09375 0.09375 0.328125l0 1.9375z" fill-rule="nonzero"></path><path fill="#000000" fill-opacity="0.0" d="m68.179565 42.05047l82.67717 0l0 21.795273l-82.67717 0z" fill-rule="evenodd"></path><path fill="#00ff00" d="m78.41394 58.028107l0 -10.734375l7.234375 0l0 1.265625l-5.8125 0l0 3.328125l5.03125 0l0 1.265625l-5.03125 0l0 4.875l-1.421875 0zm9.124496 0l0 -10.734375l1.40625 0l0 10.734375l-1.40625 0zm3.7594757 0l0 -10.734375l1.421875 0l0 9.46875l5.296875 0l0 1.265625l-6.71875 0zm8.244858 0l0 -10.734375l7.765625 0l0 1.265625l-6.34375 0l0 3.28125l5.9375 0l0 1.265625l-5.9375 0l0 3.65625l6.59375 0l0 1.265625l-8.015625 0zm12.644455 0l4.125 -10.734375l1.515625 0l4.40625 10.734375l-1.625 0l-1.25 -3.25l-4.484375 0l-1.1875 3.25l-1.5 0zm3.09375 -4.40625l3.640625 0l-1.125 -2.984375q-0.515625 -1.34375 -0.765625 -2.21875q-0.203125 1.03125 -0.578125 2.046875l-1.171875 3.15625z" fill-rule="nonzero"></path><path fill="#000000" fill-opacity="0.0" d="m68.179565 59.128235l82.67717 0l0 21.795273l-82.67717 0z" fill-rule="evenodd"></path><path fill="#999999" d="m78.41394 75.10587l0 -10.734375l7.234375 0l0 1.265625l-5.8125 0l0 3.328125l5.03125 0l0 1.265625l-5.03125 0l0 4.875l-1.421875 0zm9.124496 0l0 -10.734375l1.40625 0l0 10.734375l-1.40625 0zm3.7594757 0l0 -10.734375l1.421875 0l0 9.46875l5.296875 0l0 1.265625l-6.71875 0zm8.244858 0l0 -10.734375l7.765625 0l0 1.265625l-6.34375 0l0 3.28125l5.9375 0l0 1.265625l-5.9375 0l0 3.65625l6.59375 0l0 1.265625l-8.015625 0zm13.75383 0l0 -10.734375l4.03125 0q1.234375 0 1.96875 0.328125q0.75 0.328125 1.171875 1.0q0.421875 0.671875 0.421875 1.421875q0 0.6875 -0.375 1.296875q-0.375 0.59375 -1.125 0.96875q0.96875 0.296875 1.484375 0.984375q0.53125 0.6875 0.53125 1.625q0 0.75 -0.328125 1.40625q-0.3125 0.640625 -0.78125 1.0q-0.46875 0.34375 -1.171875 0.53125q-0.703125 0.171875 -1.734375 0.171875l-4.09375 0zm1.421875 -6.21875l2.328125 0q0.9375 0 1.359375 -0.125q0.53125 -0.171875 0.796875 -0.546875q0.28125 -0.375 0.28125 -0.9375q0 -0.53125 -0.25 -0.9375q-0.25 -0.40625 -0.734375 -0.546875q-0.46875 -0.15625 -1.625 -0.15625l-2.15625 0l0 3.25zm0 4.953125l2.671875 0q0.6875 0 0.96875 -0.046875q0.5 -0.09375 0.828125 -0.296875q0.328125 -0.203125 0.53125 -0.59375q0.21875 -0.390625 0.21875 -0.90625q0 -0.609375 -0.3125 -1.046875q-0.296875 -0.4375 -0.84375 -0.609375q-0.546875 -0.1875 -1.578125 -0.1875l-2.484375 0l0 3.6875z" fill-rule="nonzero"></path><path fill="#000000" fill-opacity="0.0" d="m19.64531 102.46112l116.566925 0l0 36.7874l-116.566925 0z" fill-rule="evenodd"></path><path fill="#3d85c6" d="m43.126305 116.90232l0 4.359375q1.1875 -1.546875 2.875 -1.546875q1.4375 0 2.453125 1.046875q1.03125 1.03125 1.03125 2.546875q0 1.53125 -1.046875 2.609375q-1.03125 1.0625 -2.4375 1.0625q-1.71875 0 -2.875 -1.5625l0 1.296875l-1.53125 0q-0.234375 0 -0.34375 -0.09375q-0.09375 -0.09375 -0.09375 -0.234375q0 -0.15625 0.09375 -0.234375q0.109375 -0.09375 0.34375 -0.09375l0.875 0l0 -8.484375l-0.875 0q-0.234375 0 -0.34375 -0.09375q-0.09375 -0.09375 -0.09375 -0.25q0 -0.140625 0.09375 -0.234375q0.109375 -0.09375 0.34375 -0.09375l1.53125 0zm5.703125 6.4375q0 -1.234375 -0.859375 -2.09375q-0.84375 -0.875 -1.984375 -0.875q-1.140625 0 -2.0 0.875q-0.84375 0.859375 -0.84375 2.09375q0 1.25 0.84375 2.109375q0.859375 0.859375 2.0 0.859375q1.140625 0 1.984375 -0.859375q0.859375 -0.859375 0.859375 -2.109375zm6.2421875 1.484375l0.28125 0q0.4375 0 0.75 0.3125q0.3125 0.3125 0.3125 0.75q0 0.453125 -0.328125 0.765625q-0.3125 0.296875 -0.734375 0.296875l-0.28125 0q-0.4375 0 -0.75 -0.3125q-0.3125 -0.3125 -0.3125 -0.75q0 -0.453125 0.3125 -0.75q0.3125 -0.3125 0.75 -0.3125zm8.3828125 -4.875l3.5625 0q0.234375 0 0.328125 0.09375q0.109375 0.09375 0.109375 0.234375q0 0.140625 -0.109375 0.234375q-0.09375 0.09375 -0.328125 0.09375l-3.5625 0l0 4.375q0 0.5625 0.453125 0.953125q0.46875 0.375 1.34375 0.375q0.671875 0 1.4375 -0.1875q0.78125 -0.203125 1.203125 -0.453125q0.15625 -0.109375 0.265625 -0.109375q0.125 0 0.21875 0.109375q0.09375 0.09375 0.09375 0.21875q0 0.125 -0.109375 0.21875q-0.25 0.265625 -1.21875 0.578125q-0.953125 0.296875 -1.84375 0.296875q-1.140625 0 -1.828125 -0.546875q-0.671875 -0.546875 -0.671875 -1.453125l0 -4.375l-1.21875 0q-0.234375 0 -0.34375 -0.09375q-0.09375 -0.09375 -0.09375 -0.234375q0 -0.140625 0.09375 -0.234375q0.109375 -0.09375 0.34375 -0.09375l1.21875 0l0 -1.9375q0 -0.234375 0.09375 -0.328125q0.09375 -0.109375 0.234375 -0.109375q0.140625 0 0.234375 0.109375q0.09375 0.09375 0.09375 0.328125l0 1.9375zm14.6171875 3.390625q0 1.5 -1.078125 2.578125q-1.0625 1.0625 -2.578125 1.0625q-1.53125 0 -2.609375 -1.0625q-1.0625 -1.078125 -1.0625 -2.578125q0 -1.5 1.0625 -2.5625q1.078125 -1.0625 2.609375 -1.0625q1.515625 0 2.578125 1.0625q1.078125 1.0625 1.078125 2.5625zm-0.65625 0q0 -1.234375 -0.890625 -2.09375q-0.875 -0.875 -2.125 -0.875q-1.25 0 -2.125 0.875q-0.875 0.875 -0.875 2.09375q0 1.21875 0.875 2.09375q0.875 0.875 2.125 0.875q1.25 0 2.125 -0.859375q0.890625 -0.875 0.890625 -2.109375zm5.8046875 -3.390625l0 1.65625q1.28125 -1.15625 1.921875 -1.484375q0.640625 -0.34375 1.171875 -0.34375q0.59375 0 1.09375 0.40625q0.5 0.390625 0.5 0.59375q0 0.140625 -0.09375 0.25q-0.09375 0.09375 -0.25 0.09375q-0.078125 0 -0.140625 -0.03125q-0.046875 -0.03125 -0.1875 -0.171875q-0.28125 -0.28125 -0.484375 -0.375q-0.203125 -0.109375 -0.390625 -0.109375q-0.4375 0 -1.046875 0.34375q-0.59375 0.34375 -2.09375 1.6875l0 3.59375l2.90625 0q0.25 0 0.34375 0.09375q0.109375 0.078125 0.109375 0.234375q0 0.140625 -0.109375 0.234375q-0.09375 0.09375 -0.34375 0.09375l-5.140625 0q-0.234375 0 -0.34375 -0.09375q-0.09375 -0.09375 -0.09375 -0.234375q0 -0.125 0.09375 -0.21875q0.09375 -0.09375 0.34375 -0.09375l1.578125 0l0 -5.46875l-1.203125 0q-0.234375 0 -0.34375 -0.09375q-0.09375 -0.09375 -0.09375 -0.234375q0 -0.140625 0.09375 -0.234375q0.09375 -0.09375 0.34375 -0.09375l1.859375 0zm9.6015625 0l0 1.65625q1.28125 -1.15625 1.921875 -1.484375q0.640625 -0.34375 1.171875 -0.34375q0.59375 0 1.09375 0.40625q0.5 0.390625 0.5 0.59375q0 0.140625 -0.09375 0.25q-0.09375 0.09375 -0.25 0.09375q-0.078125 0 -0.140625 -0.03125q-0.046875 -0.03125 -0.1875 -0.171875q-0.28125 -0.28125 -0.484375 -0.375q-0.203125 -0.109375 -0.390625 -0.109375q-0.4375 0 -1.046875 0.34375q-0.59375 0.34375 -2.09375 1.6875l0 3.59375l2.90625 0q0.25 0 0.34375 0.09375q0.109375 0.078125 0.109375 0.234375q0 0.140625 -0.109375 0.234375q-0.09375 0.09375 -0.34375 0.09375l-5.140625 0q-0.234375 0 -0.34375 -0.09375q-0.09375 -0.09375 -0.09375 -0.234375q0 -0.125 0.09375 -0.21875q0.09375 -0.09375 0.34375 -0.09375l1.578125 0l0 -5.46875l-1.203125 0q-0.234375 0 -0.34375 -0.09375q-0.09375 -0.09375 -0.09375 -0.234375q0 -0.140625 0.09375 -0.234375q0.09375 -0.09375 0.34375 -0.09375l1.859375 0zm13.9453125 3.53125l-6.6875 0q0.171875 1.28125 1.0625 2.0625q0.890625 0.765625 2.21875 0.765625q0.734375 0 1.53125 -0.234375q0.8125 -0.25 1.3125 -0.640625q0.15625 -0.125 0.265625 -0.125q0.125 0 0.21875 0.109375q0.09375 0.09375 0.09375 0.21875q0 0.140625 -0.125 0.265625q-0.375 0.390625 -1.34375 0.734375q-0.953125 0.34375 -1.953125 0.34375q-1.6875 0 -2.828125 -1.109375q-1.125 -1.109375 -1.125 -2.6875q0 -1.421875 1.0625 -2.4375q1.0625 -1.03125 2.625 -1.03125q1.609375 0 2.640625 1.046875q1.046875 1.046875 1.03125 2.71875zm-0.671875 -0.65625q-0.1875 -1.09375 -1.03125 -1.765625q-0.828125 -0.6875 -1.96875 -0.6875q-1.15625 0 -1.984375 0.671875q-0.828125 0.671875 -1.03125 1.78125l6.015625 0zm4.6015625 -2.875l0 0.984375q0.6875 -0.6875 1.234375 -0.953125q0.5625 -0.265625 1.25 -0.265625q0.75 0 1.375 0.3125q0.4375 0.234375 0.78125 0.78125q0.359375 0.546875 0.359375 1.109375l0 4.140625l0.5625 0q0.234375 0 0.328125 0.09375q0.109375 0.078125 0.109375 0.234375q0 0.140625 -0.109375 0.234375q-0.09375 0.09375 -0.328125 0.09375l-1.765625 0q-0.234375 0 -0.34375 -0.09375q-0.09375 -0.09375 -0.09375 -0.234375q0 -0.15625 0.09375 -0.234375q0.109375 -0.09375 0.34375 -0.09375l0.546875 0l0 -4.03125q0 -0.6875 -0.515625 -1.171875q-0.5 -0.484375 -1.34375 -0.484375q-0.65625 0 -1.140625 0.265625q-0.46875 0.265625 -1.34375 1.296875l0 4.125l0.734375 0q0.234375 0 0.328125 0.09375q0.109375 0.078125 0.109375 0.234375q0 0.140625 -0.109375 0.234375q-0.09375 0.09375 -0.328125 0.09375l-2.140625 0q-0.234375 0 -0.34375 -0.09375q-0.09375 -0.09375 -0.09375 -0.234375q0 -0.15625 0.09375 -0.234375q0.109375 -0.09375 0.34375 -0.09375l0.75 0l0 -5.453125l-0.5625 0q-0.234375 0 -0.34375 -0.09375q-0.09375 -0.09375 -0.09375 -0.234375q0 -0.140625 0.09375 -0.234375q0.109375 -0.09375 0.34375 -0.09375l1.21875 0zm10.3671875 0l3.5625 0q0.234375 0 0.328125 0.09375q0.109375 0.09375 0.109375 0.234375q0 0.140625 -0.109375 0.234375q-0.09375 0.09375 -0.328125 0.09375l-3.5625 0l0 4.375q0 0.5625 0.453125 0.953125q0.46875 0.375 1.34375 0.375q0.671875 0 1.4375 -0.1875q0.78125 -0.203125 1.203125 -0.453125q0.15625 -0.109375 0.265625 -0.109375q0.125 0 0.21875 0.109375q0.09375 0.09375 0.09375 0.21875q0 0.125 -0.109375 0.21875q-0.25 0.265625 -1.21875 0.578125q-0.953125 0.296875 -1.84375 0.296875q-1.140625 0 -1.828125 -0.546875q-0.671875 -0.546875 -0.671875 -1.453125l0 -4.375l-1.21875 0q-0.234375 0 -0.34375 -0.09375q-0.09375 -0.09375 -0.09375 -0.234375q0 -0.140625 0.09375 -0.234375q0.109375 -0.09375 0.34375 -0.09375l1.21875 0l0 -1.9375q0 -0.234375 0.09375 -0.328125q0.09375 -0.109375 0.234375 -0.109375q0.140625 0 0.234375 0.109375q0.09375 0.09375 0.09375 0.328125l0 1.9375z" fill-rule="nonzero"></path><path fill="#000000" fill-opacity="0.0" d="m68.179565 139.2564l82.67717 0l0 21.795273l-82.67717 0z" fill-rule="evenodd"></path><path fill="#ff0000" d="m78.41394 155.23402l0 -10.734375l7.234375 0l0 1.265625l-5.8125 0l0 3.328125l5.03125 0l0 1.265625l-5.03125 0l0 4.875l-1.421875 0zm9.124496 0l0 -10.734375l1.40625 0l0 10.734375l-1.40625 0zm3.7594757 0l0 -10.734375l1.421875 0l0 9.46875l5.296875 0l0 1.265625l-6.71875 0zm8.244858 0l0 -10.734375l7.765625 0l0 1.265625l-6.34375 0l0 3.28125l5.9375 0l0 1.265625l-5.9375 0l0 3.65625l6.59375 0l0 1.265625l-8.015625 0zm12.644455 0l4.125 -10.734375l1.515625 0l4.40625 10.734375l-1.625 0l-1.25 -3.25l-4.484375 0l-1.1875 3.25l-1.5 0zm3.09375 -4.40625l3.640625 0l-1.125 -2.984375q-0.515625 -1.34375 -0.765625 -2.21875q-0.203125 1.03125 -0.578125 2.046875l-1.171875 3.15625z" fill-rule="nonzero"></path><path fill="#000000" fill-opacity="0.0" d="m68.179565 156.33415l82.67717 0l0 21.795273l-82.67717 0z" fill-rule="evenodd"></path><path fill="#999999" d="m78.41394 172.3118l0 -10.734375l7.234375 0l0 1.265625l-5.8125 0l0 3.328125l5.03125 0l0 1.265625l-5.03125 0l0 4.875l-1.421875 0zm9.124496 0l0 -10.734375l1.40625 0l0 10.734375l-1.40625 0zm3.7594757 0l0 -10.734375l1.421875 0l0 9.46875l5.296875 0l0 1.265625l-6.71875 0zm8.244858 0l0 -10.734375l7.765625 0l0 1.265625l-6.34375 0l0 3.28125l5.9375 0l0 1.265625l-5.9375 0l0 3.65625l6.59375 0l0 1.265625l-8.015625 0zm21.47258 -3.765625l1.421875 0.359375q-0.4375 1.75 -1.609375 2.671875q-1.15625 0.921875 -2.828125 0.921875q-1.734375 0 -2.828125 -0.703125q-1.09375 -0.71875 -1.65625 -2.046875q-0.5625 -1.34375 -0.5625 -2.890625q0 -1.671875 0.640625 -2.921875q0.640625 -1.25 1.8125 -1.890625q1.1875 -0.65625 2.609375 -0.65625q1.609375 0 2.703125 0.828125q1.109375 0.8125 1.546875 2.296875l-1.40625 0.328125q-0.375 -1.171875 -1.09375 -1.703125q-0.703125 -0.53125 -1.78125 -0.53125q-1.234375 0 -2.0625 0.59375q-0.828125 0.59375 -1.171875 1.59375q-0.328125 1.0 -0.328125 2.0625q0 1.359375 0.390625 2.390625q0.40625 1.015625 1.234375 1.53125q0.84375 0.5 1.828125 0.5q1.203125 0 2.03125 -0.6875q0.828125 -0.6875 1.109375 -2.046875z" fill-rule="nonzero"></path><path fill="#000000" fill-opacity="0.0" d="m19.650116 199.66704l116.566925 0l0 36.7874l-116.566925 0z" fill-rule="evenodd"></path><path fill="#3d85c6" d="m48.34986 217.81137l0 -0.21875q0 -0.234375 0.09375 -0.328125q0.09375 -0.109375 0.234375 -0.109375q0.140625 0 0.234375 0.109375q0.09375 0.09375 0.09375 0.328125l0 1.484375q0 0.25 -0.09375 0.359375q-0.09375 0.09375 -0.234375 0.09375q-0.140625 0 -0.234375 -0.09375q-0.078125 -0.09375 -0.09375 -0.296875q-0.046875 -0.5625 -0.734375 -1.0625q-0.6875 -0.5 -1.84375 -0.5q-1.453125 0 -2.21875 0.921875q-0.75 0.90625 -0.75 2.09375q0 1.265625 0.828125 2.09375q0.84375 0.828125 2.171875 0.828125q0.765625 0 1.546875 -0.28125q0.796875 -0.28125 1.4375 -0.90625q0.171875 -0.15625 0.296875 -0.15625q0.125 0 0.21875 0.09375q0.09375 0.09375 0.09375 0.21875q0 0.34375 -0.796875 0.859375q-1.265625 0.84375 -2.828125 0.84375q-1.59375 0 -2.609375 -1.015625q-1.015625 -1.015625 -1.015625 -2.578125q0 -1.578125 1.03125 -2.625q1.046875 -1.046875 2.640625 -1.046875q1.5 0 2.53125 0.890625zm6.7265625 4.21875l0.28125 0q0.4375 0 0.75 0.3125q0.3125 0.3125 0.3125 0.75q0 0.453125 -0.328125 0.765625q-0.3125 0.296875 -0.734375 0.296875l-0.28125 0q-0.4375 0 -0.75 -0.3125q-0.3125 -0.3125 -0.3125 -0.75q0 -0.453125 0.3125 -0.75q0.3125 -0.3125 0.75 -0.3125zm8.3828125 -4.875l3.5625 0q0.234375 0 0.328125 0.09375q0.109375 0.09375 0.109375 0.234375q0 0.140625 -0.109375 0.234375q-0.09375 0.09375 -0.328125 0.09375l-3.5625 0l0 4.375q0 0.5625 0.453125 0.953125q0.46875 0.375 1.34375 0.375q0.671875 0 1.4375 -0.1875q0.78125 -0.203125 1.203125 -0.453125q0.15625 -0.109375 0.265625 -0.109375q0.125 0 0.21875 0.109375q0.09375 0.09375 0.09375 0.21875q0 0.125 -0.109375 0.21875q-0.25 0.265625 -1.21875 0.578125q-0.953125 0.296875 -1.84375 0.296875q-1.140625 0 -1.828125 -0.546875q-0.671875 -0.546875 -0.671875 -1.453125l0 -4.375l-1.21875 0q-0.234375 0 -0.34375 -0.09375q-0.09375 -0.09375 -0.09375 -0.234375q0 -0.140625 0.09375 -0.234375q0.109375 -0.09375 0.34375 -0.09375l1.21875 0l0 -1.9375q0 -0.234375 0.09375 -0.328125q0.09375 -0.109375 0.234375 -0.109375q0.140625 0 0.234375 0.109375q0.09375 0.09375 0.09375 0.328125l0 1.9375zm14.6171875 3.390625q0 1.5 -1.078125 2.578125q-1.0625 1.0625 -2.578125 1.0625q-1.53125 0 -2.609375 -1.0625q-1.0625 -1.078125 -1.0625 -2.578125q0 -1.5 1.0625 -2.5625q1.078125 -1.0625 2.609375 -1.0625q1.515625 0 2.578125 1.0625q1.078125 1.0625 1.078125 2.5625zm-0.65625 0q0 -1.234375 -0.890625 -2.09375q-0.875 -0.875 -2.125 -0.875q-1.25 0 -2.125 0.875q-0.875 0.875 -0.875 2.09375q0 1.21875 0.875 2.09375q0.875 0.875 2.125 0.875q1.25 0 2.125 -0.859375q0.890625 -0.875 0.890625 -2.109375zm5.8046875 -3.390625l0 1.65625q1.28125 -1.15625 1.921875 -1.484375q0.640625 -0.34375 1.171875 -0.34375q0.59375 0 1.09375 0.40625q0.5 0.390625 0.5 0.59375q0 0.140625 -0.09375 0.25q-0.09375 0.09375 -0.25 0.09375q-0.078125 0 -0.140625 -0.03125q-0.046875 -0.03125 -0.1875 -0.171875q-0.28125 -0.28125 -0.484375 -0.375q-0.203125 -0.109375 -0.390625 -0.109375q-0.4375 0 -1.046875 0.34375q-0.59375 0.34375 -2.09375 1.6875l0 3.59375l2.90625 0q0.25 0 0.34375 0.09375q0.109375 0.078125 0.109375 0.234375q0 0.140625 -0.109375 0.234375q-0.09375 0.09375 -0.34375 0.09375l-5.140625 0q-0.234375 0 -0.34375 -0.09375q-0.09375 -0.09375 -0.09375 -0.234375q0 -0.125 0.09375 -0.21875q0.09375 -0.09375 0.34375 -0.09375l1.578125 0l0 -5.46875l-1.203125 0q-0.234375 0 -0.34375 -0.09375q-0.09375 -0.09375 -0.09375 -0.234375q0 -0.140625 0.09375 -0.234375q0.09375 -0.09375 0.34375 -0.09375l1.859375 0zm9.6015625 0l0 1.65625q1.28125 -1.15625 1.921875 -1.484375q0.640625 -0.34375 1.171875 -0.34375q0.59375 0 1.09375 0.40625q0.5 0.390625 0.5 0.59375q0 0.140625 -0.09375 0.25q-0.09375 0.09375 -0.25 0.09375q-0.078125 0 -0.140625 -0.03125q-0.046875 -0.03125 -0.1875 -0.171875q-0.28125 -0.28125 -0.484375 -0.375q-0.203125 -0.109375 -0.390625 -0.109375q-0.4375 0 -1.046875 0.34375q-0.59375 0.34375 -2.09375 1.6875l0 3.59375l2.90625 0q0.25 0 0.34375 0.09375q0.109375 0.078125 0.109375 0.234375q0 0.140625 -0.109375 0.234375q-0.09375 0.09375 -0.34375 0.09375l-5.140625 0q-0.234375 0 -0.34375 -0.09375q-0.09375 -0.09375 -0.09375 -0.234375q0 -0.125 0.09375 -0.21875q0.09375 -0.09375 0.34375 -0.09375l1.578125 0l0 -5.46875l-1.203125 0q-0.234375 0 -0.34375 -0.09375q-0.09375 -0.09375 -0.09375 -0.234375q0 -0.140625 0.09375 -0.234375q0.09375 -0.09375 0.34375 -0.09375l1.859375 0zm13.9453125 3.53125l-6.6875 0q0.171875 1.28125 1.0625 2.0625q0.890625 0.765625 2.21875 0.765625q0.734375 0 1.53125 -0.234375q0.8125 -0.25 1.3125 -0.640625q0.15625 -0.125 0.265625 -0.125q0.125 0 0.21875 0.109375q0.09375 0.09375 0.09375 0.21875q0 0.140625 -0.125 0.265625q-0.375 0.390625 -1.34375 0.734375q-0.953125 0.34375 -1.953125 0.34375q-1.6875 0 -2.828125 -1.109375q-1.125 -1.109375 -1.125 -2.6875q0 -1.421875 1.0625 -2.4375q1.0625 -1.03125 2.625 -1.03125q1.609375 0 2.640625 1.046875q1.046875 1.046875 1.03125 2.71875zm-0.671875 -0.65625q-0.1875 -1.09375 -1.03125 -1.765625q-0.828125 -0.6875 -1.96875 -0.6875q-1.15625 0 -1.984375 0.671875q-0.828125 0.671875 -1.03125 1.78125l6.015625 0zm4.6015625 -2.875l0 0.984375q0.6875 -0.6875 1.234375 -0.953125q0.5625 -0.265625 1.25 -0.265625q0.75 0 1.375 0.3125q0.4375 0.234375 0.78125 0.78125q0.359375 0.546875 0.359375 1.109375l0 4.140625l0.5625 0q0.234375 0 0.328125 0.09375q0.109375 0.078125 0.109375 0.234375q0 0.140625 -0.109375 0.234375q-0.09375 0.09375 -0.328125 0.09375l-1.765625 0q-0.234375 0 -0.34375 -0.09375q-0.09375 -0.09375 -0.09375 -0.234375q0 -0.15625 0.09375 -0.234375q0.109375 -0.09375 0.34375 -0.09375l0.546875 0l0 -4.03125q0 -0.6875 -0.515625 -1.171875q-0.5 -0.484375 -1.34375 -0.484375q-0.65625 0 -1.140625 0.265625q-0.46875 0.265625 -1.34375 1.296875l0 4.125l0.734375 0q0.234375 0 0.328125 0.09375q0.109375 0.078125 0.109375 0.234375q0 0.140625 -0.109375 0.234375q-0.09375 0.09375 -0.328125 0.09375l-2.140625 0q-0.234375 0 -0.34375 -0.09375q-0.09375 -0.09375 -0.09375 -0.234375q0 -0.15625 0.09375 -0.234375q0.109375 -0.09375 0.34375 -0.09375l0.75 0l0 -5.453125l-0.5625 0q-0.234375 0 -0.34375 -0.09375q-0.09375 -0.09375 -0.09375 -0.234375q0 -0.140625 0.09375 -0.234375q0.109375 -0.09375 0.34375 -0.09375l1.21875 0zm10.3671875 0l3.5625 0q0.234375 0 0.328125 0.09375q0.109375 0.09375 0.109375 0.234375q0 0.140625 -0.109375 0.234375q-0.09375 0.09375 -0.328125 0.09375l-3.5625 0l0 4.375q0 0.5625 0.453125 0.953125q0.46875 0.375 1.34375 0.375q0.671875 0 1.4375 -0.1875q0.78125 -0.203125 1.203125 -0.453125q0.15625 -0.109375 0.265625 -0.109375q0.125 0 0.21875 0.109375q0.09375 0.09375 0.09375 0.21875q0 0.125 -0.109375 0.21875q-0.25 0.265625 -1.21875 0.578125q-0.953125 0.296875 -1.84375 0.296875q-1.140625 0 -1.828125 -0.546875q-0.671875 -0.546875 -0.671875 -1.453125l0 -4.375l-1.21875 0q-0.234375 0 -0.34375 -0.09375q-0.09375 -0.09375 -0.09375 -0.234375q0 -0.140625 0.09375 -0.234375q0.109375 -0.09375 0.34375 -0.09375l1.21875 0l0 -1.9375q0 -0.234375 0.09375 -0.328125q0.09375 -0.109375 0.234375 -0.109375q0.140625 0 0.234375 0.109375q0.09375 0.09375 0.09375 0.328125l0 1.9375z" fill-rule="nonzero"></path><path fill="#000000" fill-opacity="0.0" d="m68.179565 236.46231l82.67717 0l0 21.795258l-82.67717 0z" fill-rule="evenodd"></path><path fill="#ff0000" d="m78.41394 252.43994l0 -10.734375l7.234375 0l0 1.265625l-5.8125 0l0 3.328125l5.03125 0l0 1.265625l-5.03125 0l0 4.875l-1.421875 0zm9.124496 0l0 -10.734375l1.40625 0l0 10.734375l-1.40625 0zm3.7594757 0l0 -10.734375l1.421875 0l0 9.46875l5.296875 0l0 1.265625l-6.71875 0zm8.244858 0l0 -10.734375l7.765625 0l0 1.265625l-6.34375 0l0 3.28125l5.9375 0l0 1.265625l-5.9375 0l0 3.65625l6.59375 0l0 1.265625l-8.015625 0zm12.644455 0l4.125 -10.734375l1.515625 0l4.40625 10.734375l-1.625 0l-1.25 -3.25l-4.484375 0l-1.1875 3.25l-1.5 0zm3.09375 -4.40625l3.640625 0l-1.125 -2.984375q-0.515625 -1.34375 -0.765625 -2.21875q-0.203125 1.03125 -0.578125 2.046875l-1.171875 3.15625z" fill-rule="nonzero"></path><path fill="#000000" fill-opacity="0.0" d="m68.179565 253.54007l82.67717 0l0 21.795288l-82.67717 0z" fill-rule="evenodd"></path><path fill="#999999" d="m78.41394 269.5177l0 -10.734375l7.234375 0l0 1.265625l-5.8125 0l0 3.328125l5.03125 0l0 1.265625l-5.03125 0l0 4.875l-1.421875 0zm9.124496 0l0 -10.734375l1.40625 0l0 10.734375l-1.40625 0zm3.7594757 0l0 -10.734375l1.421875 0l0 9.46875l5.296875 0l0 1.265625l-6.71875 0zm8.244858 0l0 -10.734375l7.765625 0l0 1.265625l-6.34375 0l0 3.28125l5.9375 0l0 1.265625l-5.9375 0l0 3.65625l6.59375 0l0 1.265625l-8.015625 0zm13.81633 0l0 -10.734375l3.703125 0q1.25 0 1.90625 0.15625q0.921875 0.203125 1.578125 0.765625q0.84375 0.71875 1.265625 1.84375q0.421875 1.109375 0.421875 2.546875q0 1.21875 -0.28125 2.171875q-0.28125 0.9375 -0.734375 1.5625q-0.453125 0.609375 -0.984375 0.96875q-0.53125 0.359375 -1.28125 0.546875q-0.75 0.171875 -1.71875 0.171875l-3.875 0zm1.421875 -1.265625l2.296875 0q1.0625 0 1.65625 -0.1875q0.609375 -0.203125 0.96875 -0.5625q0.5 -0.515625 0.78125 -1.359375q0.28125 -0.859375 0.28125 -2.078125q0 -1.6875 -0.546875 -2.578125q-0.546875 -0.90625 -1.34375 -1.21875q-0.578125 -0.21875 -1.84375 -0.21875l-2.25 0l0 8.203125z" fill-rule="nonzero"></path><path fill="#000000" fill-opacity="0.0" d="m153.63052 52.840096c33.007874 0 49.51181 19.055122 66.01575 38.110237c16.503937 19.055115 33.007874 38.11023 66.01575 38.11023" fill-rule="evenodd"></path><path stroke="#00ff00" stroke-width="1.0" stroke-linejoin="round" stroke-linecap="butt" d="m153.63052 52.840096c33.007874 0 49.51181 19.055122 66.01575 38.110237c16.503937 19.055115 33.007874 38.11023 66.01575 38.11023" fill-rule="evenodd"></path><path fill="#000000" fill-opacity="0.0" d="m153.14764 247.46655c33.314972 0 49.972443 -19.236221 66.62993 -38.472443c16.65747 -19.236221 33.314957 -38.472443 66.62993 -38.472443" fill-rule="evenodd"></path><path stroke="#ff0000" stroke-width="1.0" stroke-linejoin="round" stroke-linecap="butt" stroke-dasharray="4.0,3.0" d="m153.14764 247.46655c33.314972 0 49.972443 -19.236221 66.62993 -38.472443c16.65747 -19.236221 33.314957 -38.472443 66.62993 -38.472443" fill-rule="evenodd"></path><path fill="#000000" fill-opacity="0.0" d="m153.26837 149.87164l135.05511 0" fill-rule="evenodd"></path><path stroke="#ff0000" stroke-width="1.0" stroke-linejoin="round" stroke-linecap="butt" stroke-dasharray="4.0,3.0" d="m153.26837 149.87164l135.05511 0" fill-rule="evenodd"></path><path fill="#00ff00" d="m295.3547 126.26196l7.354309 0l0 -2.7165298l5.433075 5.4330673l-5.433075 5.433075l0 -2.7165375l-7.354309 0z" fill-rule="evenodd"></path><path fill="#ff0000" d="m294.5945 147.03397l2.6714783 -2.671463l2.8378296 2.8378448l2.8378296 -2.8378448l2.6714478 2.671463l-2.8378296 2.8378448l2.8378296 2.8378296l-2.6714478 2.671463l-2.8378296 -2.8378296l-2.8378296 2.8378296l-2.6714783 -2.671463l2.8378296 -2.8378296z" fill-rule="evenodd"></path><path fill="#ff0000" d="m294.5945 168.6159l2.6714783 -2.6714478l2.8378296 2.8378296l2.8378296 -2.8378296l2.6714478 2.6714478l-2.8378296 2.8378448l2.8378296 2.8378296l-2.6714478 2.671463l-2.8378296 -2.8378296l-2.8378296 2.8378296l-2.6714783 -2.671463l2.8378296 -2.8378296z" fill-rule="evenodd"></path></g></svg>

